<?xml version="1.0" encoding="UTF-8"?>
<svg id="Layer_2" data-name="Layer 2" xmlns="http://www.w3.org/2000/svg" viewBox="0 0 800 800">
  <defs>
    <style>
      .cls-1 {
        fill: #fff;
      }

      .cls-1, .cls-2 {
        stroke-width: 0px;
      }

      .cls-2 {
        fill: #3dbdfc;
      }
    </style>
  </defs>
  <rect class="cls-2" x="-65.57" y="-47.33" width="926.64" height="894.66"/>
  <g>
    <path class="cls-1" d="M440.9,177.81c9.73,1.84,12.94,8.9,14.01,17.57.77,6.29.95,12.64,1.96,18.87.71,4.27,2.31,8.43,3.68,12.58,1.36,4.09,3.38,8.01,4.45,12.11,1.01,4.04,1.19,8.31,1.84,13.12,6.05-4.63,13.71-7.06,15.49-15.96,1.25-5.99,3.5-11.63,9.73-14.66,10.27-4.98,27.42-1.54,28.19,16.68.06,1.72.95,3.56,1.96,4.98,2.31,3.26,5.04,6.23,7.54,9.44,2.49,3.2,4.75,3.62,7.6.71,2.79-2.85,5.22-6.11,7.54-9.32,1.01-1.42,1.96-2.08,3.74-2.08h48.72c4.87,0,9.67.18,14.54.18,7.18,0,10.98,4.21,13.47,10.39,1.31,3.2,2.79,6.29,4.51,9.26,2.91,4.93,7.42,7.42,13.12,8.25,8.37,1.25,10.74,4.04,11.28,12.7.3,4.51.59,9.02.83,13.06,4.15,1.72,8.37,2.91,12.05,5.04,6.53,3.8,9.79,12.46,8.66,19.94-2.2,14.12-9.2,25.93-17.57,37.03-.71.89-2.02,1.6-3.2,1.84-6.35,1.31-12.82,2.37-19.17,3.62-2.43.47-4.81,1.25-7.89,2.08,1.31,1.42,1.96,2.31,2.85,3.03,12.52,9.91,15.55,26.29,7.66,40-5.82,10.03-11.99,20-16.85,30.5-9.5,20.41-16.74,41.72-22.61,63.38-3.98,14.72-7.3,29.67-10.44,44.57-1.25,5.93-.83,12.23-1.9,18.28-1.54,8.61-5.46,15.96-13.35,20.47-9.32,5.34-18.69,4.98-27.48-1.01-8.49-5.76-12.17-14.18-10.15-24.15,3.44-17.21,7.6-34.24,11.51-51.33,2.14-9.26,4.27-18.52,6.35-27.77.12-.59,0-1.25,0-2.14h-9.26c-10.5,0-20.89-.89-30.98-4.04-11.87-3.68-19.58-11.87-25.28-22.37-2.02-3.68-3.38-7.66-5.22-11.93-2.79,2.49-5.7,4.87-8.31,7.48-.36.36.3,2.14.89,2.91,6.05,7.83,10.74,16.38,13.17,26.05,3.62,14.6,1.48,28.55-5.46,41.78-6.94,13.12-16.68,23.74-28.31,32.94-11.93,9.38-24.15,18.34-37.57,25.58-10.21,5.52-20.95,9.61-32.7,9.79-10.21.18-19.64-3.03-28.01-8.84-13.35-9.26-19.82-22.49-20.24-38.46-.3-12.52,7.89-19.58,19.94-21.42,10.27-1.54,18.22,2.43,25.16,9.38,5.76,5.7,13.23,5.28,19.47,1.48,9.85-5.99,17.21-14.6,24.03-23.68,2.31-3.09,4.39-6.41,6.77-9.5,1.54-2.02,1.13-3.15-1.19-3.44-3.44-.47-6.88-.89-10.33-.95-10.15-.12-20.36.77-30.27-1.96-7.66-2.08-13.77-6.11-15.55-14.36-1.84-8.55.59-16.14,6.35-22.55,3.03-3.38,6.65-6.23,9.85-9.38.65-.65.83-1.78,1.25-2.67-.89-.36-1.78-.95-2.67-.95-4.57.06-9.08.12-13.06-2.79-5.7-4.27-6.88-10.33-6.77-16.85.18-7.54,3.8-13.71,8.84-18.93,3.32-3.5,7.18-6.47,10.74-9.73.3-.24.36-.71,1.01-2.02-3.86.24-7.12.24-10.33.59-11.33,1.36-22.61,2.85-33.95,4.21-1.66.18-2.55.59-2.79,2.49-1.9,13.89-4.04,27.71-5.93,41.6-2.14,15.67-4.15,31.33-6.17,47-2.08,16.56-4.21,33.11-6.11,49.67-1.54,13.29-2.79,26.65-4.04,40-.36,3.5-1.13,5.93-5.04,7.48-18.75,7.3-37.33,15.01-55.96,22.61-12.7,5.16-25.46,10.44-38.16,15.67-.83.36-1.72.65-3.2,1.25,1.07-5.58,1.96-10.68,3.03-15.67,4.87-22.61,9.55-45.28,14.72-67.83,8.78-38.46,17.86-76.79,26.76-115.19,1.19-5.1,2.31-10.27,3.38-15.43.24-1.01.3-2.08.53-3.8-36.08,7.71-71.75,15.31-108.19,23.09,2.31-9.5,4.04-18.52,6.71-27.24,3.92-12.58,7.42-25.46,13.06-37.27,6.59-13.77,15.19-26.59,23.14-39.7.77-1.31,3.03-2.43,4.63-2.49,14.3-.59,28.55-1.07,42.85-1.36,17.27-.42,34.54-.59,51.81-.95,15.96-.36,31.99-.59,47.95-1.31,14.01-.65,28.01-1.6,42.02-2.97,7.66-.71,10.21-4.93,8.96-12.58-.65-4.04-1.13-8.13-1.48-12.23-.18-2.08.65-3.86,2.91-4.21,4.09-.65,5.34-3.8,5.46-7.12.42-11.99.42-24.03.83-36.02.18-5.04.95-9.97,3.86-14.48,3.86-5.93,5.34-12.76,6.23-19.76.65-5.04,1.6-10.03,2.67-14.95,1.66-7.6,5.76-13.17,13.89-14.78h7v-.12ZM287.14,383.26c-.53,1.96-.71,2.67-.89,3.38-4.98,22.91-9.73,45.87-14.95,68.72-5.93,25.93-12.28,51.75-18.34,77.62-4.39,18.52-8.66,36.97-12.94,55.49-.71,3.15-1.13,6.29-1.72,10.09,2.73-1.13,4.87-2.08,7-2.97,19.64-8.07,39.23-16.08,58.93-24.09,1.78-.71,2.67-1.72,2.79-3.62.47-6.23,1.07-12.4,1.54-18.63.71-9.14,1.25-18.34,2.08-27.48.89-9.44,1.96-18.87,3.03-28.31,1.48-12.7,2.97-25.4,4.63-38.04,1.72-12.76,3.62-25.46,5.58-38.22,1.9-12.4,3.92-24.81,5.88-36.97.47-.24.65-.42.83-.42,20.53-2.97,41.13-6.05,61.66-8.9,8.49-1.19,17.03-1.78,25.52-2.61,9.32-.95,18.69-1.84,28.01-2.79,9.32-.95,18.63-2.02,28.01-2.97,9.79-1.01,19.52-1.9,29.32-2.91,11.1-1.13,22.25-2.37,33.35-3.5,11.33-1.19,22.67-2.26,34-3.44,13.23-1.36,26.41-2.85,39.64-4.21,11.33-1.19,22.73-2.2,34.06-3.38.77-.06,1.84-.59,2.2-1.25,3.74-6.17,7.54-12.4,10.92-18.75,1.25-2.31,1.54-5.22,1.9-7.89.36-2.55-1.13-4.39-3.56-4.93-2.97-.71-5.99-1.19-9.02-1.31-5.76-.24-7.06-1.36-7.06-7.18,0-3.68.3-7.42.24-11.1-.06-4.57-2.14-7.06-6.41-6.88-4.87.18-7.36-2.79-9.61-6.05-4.69-6.82-9.02-13.89-13.71-20.71-.65-.95-2.26-1.84-3.44-1.84-14.3-.12-28.66.3-42.97-.24-5.46-.24-8.37,1.54-10.86,5.93-3.32,5.7-7.06,11.16-10.68,16.74-2.49,3.86-4.33,3.8-6.88,0-.36-.47-2.02-.59-2.61-.24-3.2,2.14-4.51,1.6-5.16-2.2-.12-.83-.24-1.66-.42-2.49-1.36-8.84-9.38-19.17-17.98-20.77-3.5-.65-4.09-2.55-4.27-5.52-.18-2.85-.42-5.7-1.13-8.49-.24-.95-1.78-2.02-2.85-2.14-.71-.12-2.14,1.31-2.31,2.2-.65,3.32-.77,6.71-1.42,10.03-.24,1.31-1.31,3.26-2.2,3.44-7.77,1.13-12.76,5.64-16.08,12.34-2.97,6.05-4.45,12.52-4.51,19.29,0,3.03-1.07,4.87-4.21,5.46-5.93,1.19-11.75.83-17.57-.65-2.08-.53-2.73-1.78-2.73-3.92.06-12.82,0-25.7,0-38.52,0-5.93-.89-11.39-5.1-16.14-1.42-1.6-1.84-4.39-2.2-6.71-.83-5.52-1.19-11.1-2.08-16.62-.42-2.31-.77-5.88-3.8-5.76-2.97.06-3.32,3.56-3.68,5.99-.71,4.98-.77,10.09-1.48,15.07-.42,2.85-.71,6.29-2.43,8.25-3.8,4.33-5.1,9.14-5.1,14.6v39.46c0,.95-.12,1.84-.18,3.03h-5.52c-5.64,0-6.88,1.25-6.35,6.88.06.95.3,1.84.42,2.79,1.31,8.61,2.49,17.15.89,25.82-.3,1.66-.89,2.08-2.43,2.14-3.92.18-7.77.53-11.69.83-12.52,1.01-24.98,2.14-37.51,2.97-14.84,1.01-29.73,1.96-44.63,2.55-19.35.83-38.75,1.42-58.16,1.84-14.54.36-29.08.24-43.62.42-.89,0-2.14.47-2.55,1.13-4.04,6.05-8.13,12.05-11.75,18.34-7.54,13.17-11.87,27.65-16.32,42.08-1.25,4.04-2.26,8.19-3.44,12.7,35.49-8.61,70.44-17.09,106.17-25.82l-.06-.06ZM418.17,477.39v-.53c4.33,0,8.72-.06,13.06,0,10.21.24,18.34,7.36,18.28,16.44,0,6.47-2.97,12.23-6.41,17.57-9.55,15.01-22.49,26.59-37.86,35.37-9.97,5.7-20.12,5.7-29.91-.89-4.39-2.97-8.66-6.11-13.23-8.84-3.15-1.84-7.42-1.19-8.78,1.42-1.01,1.96-1.48,4.69-1.07,6.88,2.14,11.81,9.02,20.06,20,24.63,10.92,4.57,21.84,2.61,32.34-1.48,16.74-6.59,30.74-17.33,43.5-29.85,8.66-8.55,16.44-17.68,21.66-28.78,7.36-15.73,4.81-30.68-7.3-42.97-3.86-3.92-8.61-6.29-13.65-8.25-5.04-1.96-5.7-4.39-1.78-8.01,6.35-5.82,12.76-11.75,19.64-16.85,10.09-7.42,16.74-16.79,19.41-29.08,1.19-5.4-.89-10.15-5.7-12.76-6.71-3.62-14.06-3.92-21.36-3.26-18.58,1.6-36.38,6.47-53.29,14.18-6.71,3.03-13.47,6.11-18.52,11.81-3.8,4.27-2.61,8.78,2.97,9.79,3.09.53,6.35.59,9.5.24,12.7-1.48,24.69-5.46,36.32-10.68,3.32-1.48,7-2.55,10.62-2.85,2.2-.18,5.16.95,6.71,2.49,1.72,1.72.12,4.04-1.36,5.76-2.02,2.26-3.8,4.87-6.17,6.65-10.33,7.48-20.95,14.6-31.27,22.08-7.71,5.58-15.9,10.5-21.96,18.1-1.6,2.02-3.74,4.33-2.26,6.71,1.07,1.72,3.68,3.26,5.76,3.5,7.3.83,14.72,1.13,22.08,1.6l.06-.12ZM577.27,371.99s-.06.42-.12.59c-3.92.3-7.83.3-11.69.95-21.66,3.44-40,12.82-53.41,30.62-7.06,9.38-12.4,19.52-11.81,31.69.42,7.95,3.38,14.95,9.79,20.12,6.94,5.64,15.31,6.82,23.86,7.12,12.11.42,23.92-2.02,35.67-4.87,4.75-1.19,6.53.59,5.46,5.34-1.78,7.71-3.56,15.49-5.4,23.2-5.22,21.66-10.5,43.32-15.67,64.98-1.19,4.93-2.14,9.91-2.67,14.95-.36,3.68,1.6,5.76,5.28,6.23,3.03.36,6.17.53,9.2.3,1.13-.06,2.49-1.31,3.2-2.43.77-1.19.89-2.79,1.19-4.21,3.8-18.69,7.24-37.51,11.39-56.08,4.39-19.7,10.33-38.99,17.51-57.86,4.57-11.99,9.85-23.68,16.79-34.6,3.2-5.04,6.47-10.15,8.72-15.61,3.09-7.54,2.26-14.95-4.75-20.24-3.15-2.37-6.82-4.63-10.56-5.34-10.5-2.08-21.19-3.32-31.81-4.93l-.18.06Z"/>
    <path class="cls-1" d="M450.93,302.67c-.65-1.42-1.96-2.97-1.84-4.33.12-1.13,1.72-2.97,2.85-3.09,2.14-.24,3.09,1.84,2.85,3.62-.18,1.36-1.54,2.55-2.37,3.8h-1.48Z"/>
    <path class="cls-1" d="M456.51,298.94c1.9-1.6,2.97-3.15,4.21-3.26.83-.06,2.26,1.84,2.61,3.09.47,1.84-.59,3.62-2.67,3.38-1.19-.12-2.2-1.6-4.09-3.15l-.06-.06Z"/>
    <path class="cls-1" d="M469.5,294.96c.83,1.31,2.31,2.55,2.31,3.86,0,1.13-1.66,2.31-2.55,3.44-.95-1.07-2.55-2.02-2.73-3.2-.18-1.25.95-2.67,1.54-3.98.47,0,.95,0,1.42-.06v-.06Z"/>
    <path class="cls-1" d="M541.25,448.54c-2.85-.65-6.41-1.19-9.79-2.26-8.07-2.49-10.74-11.57-9.32-18.22,2.37-11.16,8.96-19.35,17.92-25.76,9.14-6.59,19.05-11.81,30.74-11.63,5.76.06,11.51.95,16.38,4.69,5.7,4.39,7.48,10.56,4.81,17.63-3.26,8.55-9.02,15.01-15.96,20.83-7.6,6.35-16.02,10.86-25.58,13.23-2.73.71-5.64.89-9.2,1.48ZM542.79,433.23v.18c1.54-.24,3.15-.36,4.63-.71,7.95-1.84,14.54-6.29,20.3-11.75,3.32-3.15,6.41-6.88,7.36-11.75.42-2.14-.18-3.38-2.43-3.32-2.2,0-4.45,0-6.59.42-8.31,1.84-15.31,6.23-21.07,12.23-2.91,3.03-4.98,6.94-6.88,10.74-1.31,2.67-.18,3.86,2.79,3.98h1.9Z"/>
  </g>
</svg>