<?xml version="1.0" encoding="UTF-8"?>
<svg id="Layer_2" data-name="Layer 2" xmlns="http://www.w3.org/2000/svg" viewBox="0 0 87.23 74.87">
  <defs>
    <style>
      .cls-1 {
        fill: #fff;
        stroke-width: 0px;
      }
    </style>
  </defs>
  <g id="Layer_2-2" data-name="Layer 2">
    <g>
      <path class="cls-1" d="M47.61,0c1.64.31,2.18,1.5,2.36,2.96.13,1.06.16,2.13.33,3.18.12.72.39,1.42.62,2.12.23.69.57,1.35.75,2.04.17.68.2,1.4.31,2.21,1.02-.78,2.31-1.19,2.61-2.69.21-1.01.59-1.96,1.64-2.47,1.73-.84,4.62-.26,4.75,2.81.01.29.16.6.33.84.39.55.85,1.05,1.27,1.59.42.54.8.61,1.28.12.47-.48.88-1.03,1.27-1.57.17-.24.33-.35.63-.35,2.74,0,5.47,0,8.21,0,.82,0,1.63.03,2.45.03,1.21,0,1.85.71,2.27,1.75.22.54.47,1.06.76,1.56.49.83,1.25,1.25,2.21,1.39,1.41.21,1.81.68,1.9,2.14.05.76.1,1.52.14,2.2.7.29,1.41.49,2.03.85,1.1.64,1.65,2.1,1.46,3.36-.37,2.38-1.55,4.37-2.96,6.24-.12.15-.34.27-.54.31-1.07.22-2.16.4-3.23.61-.41.08-.81.21-1.33.35.22.24.33.39.48.51,2.11,1.67,2.62,4.43,1.29,6.74-.98,1.69-2.02,3.37-2.84,5.14-1.6,3.44-2.82,7.03-3.81,10.68-.67,2.48-1.23,5-1.76,7.51-.21,1-.14,2.06-.32,3.08-.26,1.45-.92,2.69-2.25,3.45-1.57.9-3.15.84-4.63-.17-1.43-.97-2.05-2.39-1.71-4.07.58-2.9,1.28-5.77,1.94-8.65.36-1.56.72-3.12,1.07-4.68.02-.1,0-.21,0-.36-.53,0-1.05,0-1.56,0-1.77,0-3.52-.15-5.22-.68-2-.62-3.3-2-4.26-3.77-.34-.62-.57-1.29-.88-2.01-.47.42-.96.82-1.4,1.26-.06.06.05.36.15.49,1.02,1.32,1.81,2.76,2.22,4.39.61,2.46.25,4.81-.92,7.04-1.17,2.21-2.81,4-4.77,5.55-2.01,1.58-4.07,3.09-6.33,4.31-1.72.93-3.53,1.62-5.51,1.65-1.72.03-3.31-.51-4.72-1.49-2.25-1.56-3.34-3.79-3.41-6.48-.05-2.11,1.33-3.3,3.36-3.61,1.73-.26,3.07.41,4.24,1.58.97.96,2.23.89,3.28.25,1.66-1.01,2.9-2.46,4.05-3.99.39-.52.74-1.08,1.14-1.6.26-.34.19-.53-.2-.58-.58-.08-1.16-.15-1.74-.16-1.71-.02-3.43.13-5.1-.33-1.29-.35-2.32-1.03-2.62-2.42-.31-1.44.1-2.72,1.07-3.8.51-.57,1.12-1.05,1.66-1.58.11-.11.14-.3.21-.45-.15-.06-.3-.16-.45-.16-.77.01-1.53.02-2.2-.47-.96-.72-1.16-1.74-1.14-2.84.03-1.27.64-2.31,1.49-3.19.56-.59,1.21-1.09,1.81-1.64.05-.04.06-.12.17-.34-.65.04-1.2.04-1.74.1-1.91.23-3.81.48-5.72.71-.28.03-.43.1-.47.42-.32,2.34-.68,4.67-1,7.01-.36,2.64-.7,5.28-1.04,7.92-.35,2.79-.71,5.58-1.03,8.37-.26,2.24-.47,4.49-.68,6.74-.06.59-.19,1-.85,1.26-3.16,1.23-6.29,2.53-9.43,3.81-2.14.87-4.29,1.76-6.43,2.64-.14.06-.29.11-.54.21.18-.94.33-1.8.51-2.64.82-3.81,1.61-7.63,2.48-11.43,1.48-6.48,3.01-12.94,4.51-19.41.2-.86.39-1.73.57-2.6.04-.17.05-.35.09-.64-6.08,1.3-12.09,2.58-18.23,3.89.39-1.6.68-3.12,1.13-4.59.66-2.12,1.25-4.29,2.2-6.28,1.11-2.32,2.56-4.48,3.9-6.69.13-.22.51-.41.78-.42,2.41-.1,4.81-.18,7.22-.23,2.91-.07,5.82-.1,8.73-.16,2.69-.06,5.39-.1,8.08-.22,2.36-.11,4.72-.27,7.08-.5,1.29-.12,1.72-.83,1.51-2.12-.11-.68-.19-1.37-.25-2.06-.03-.35.11-.65.49-.71.69-.11.9-.64.92-1.2.07-2.02.07-4.05.14-6.07.03-.85.16-1.68.65-2.44.65-1,.9-2.15,1.05-3.33.11-.85.27-1.69.45-2.52.28-1.28.97-2.22,2.34-2.49h1.18ZM21.7,34.62c-.09.33-.12.45-.15.57-.84,3.86-1.64,7.73-2.52,11.58-1,4.37-2.07,8.72-3.09,13.08-.74,3.12-1.46,6.23-2.18,9.35-.12.53-.19,1.06-.29,1.7.46-.19.82-.35,1.18-.5,3.31-1.36,6.61-2.71,9.93-4.06.3-.12.45-.29.47-.61.08-1.05.18-2.09.26-3.14.12-1.54.21-3.09.35-4.63.15-1.59.33-3.18.51-4.77.25-2.14.5-4.28.78-6.41.29-2.15.61-4.29.94-6.44.32-2.09.66-4.18.99-6.23.08-.04.11-.07.14-.07,3.46-.5,6.93-1.02,10.39-1.5,1.43-.2,2.87-.3,4.3-.44,1.57-.16,3.15-.31,4.72-.47,1.57-.16,3.14-.34,4.72-.5,1.65-.17,3.29-.32,4.94-.49,1.87-.19,3.75-.4,5.62-.59,1.91-.2,3.82-.38,5.73-.58,2.23-.23,4.45-.48,6.68-.71,1.91-.2,3.83-.37,5.74-.57.13-.01.31-.1.37-.21.63-1.04,1.27-2.09,1.84-3.16.21-.39.26-.88.32-1.33.06-.43-.19-.74-.6-.83-.5-.12-1.01-.2-1.52-.22-.97-.04-1.19-.23-1.19-1.21,0-.62.05-1.25.04-1.87-.01-.77-.36-1.19-1.08-1.16-.82.03-1.24-.47-1.62-1.02-.79-1.15-1.52-2.34-2.31-3.49-.11-.16-.38-.31-.58-.31-2.41-.02-4.83.05-7.24-.04-.92-.04-1.41.26-1.83,1-.56.96-1.19,1.88-1.8,2.82-.42.65-.73.64-1.16,0-.06-.08-.34-.1-.44-.04-.54.36-.76.27-.87-.37-.02-.14-.04-.28-.07-.42-.23-1.49-1.58-3.23-3.03-3.5-.59-.11-.69-.43-.72-.93-.03-.48-.07-.96-.19-1.43-.04-.16-.3-.34-.48-.36-.12-.02-.36.22-.39.37-.11.56-.13,1.13-.24,1.69-.04.22-.22.55-.37.58-1.31.19-2.15.95-2.71,2.08-.5,1.02-.75,2.11-.76,3.25,0,.51-.18.82-.71.92-1,.2-1.98.14-2.96-.11-.35-.09-.46-.3-.46-.66.01-2.16,0-4.33,0-6.49,0-1-.15-1.92-.86-2.72-.24-.27-.31-.74-.37-1.13-.14-.93-.2-1.87-.35-2.8-.07-.39-.13-.99-.64-.97-.5.01-.56.6-.62,1.01-.12.84-.13,1.7-.25,2.54-.07.48-.12,1.06-.41,1.39-.64.73-.86,1.54-.86,2.46,0,2.22,0,4.44,0,6.65,0,.16-.02.31-.03.51-.33,0-.63,0-.93,0-.95,0-1.16.21-1.07,1.16.01.16.05.31.07.47.22,1.45.42,2.89.15,4.35-.05.28-.15.35-.41.36-.66.03-1.31.09-1.97.14-2.11.17-4.21.36-6.32.5-2.5.17-5.01.33-7.52.43-3.26.14-6.53.24-9.8.31-2.45.06-4.9.04-7.35.07-.15,0-.36.08-.43.19-.68,1.02-1.37,2.03-1.98,3.09-1.27,2.22-2,4.66-2.75,7.09-.21.68-.38,1.38-.58,2.14,5.98-1.45,11.87-2.88,17.89-4.35ZM43.78,50.48s0-.06,0-.09c.73,0,1.47-.01,2.2,0,1.72.04,3.09,1.24,3.08,2.77,0,1.09-.5,2.06-1.08,2.96-1.61,2.53-3.79,4.48-6.38,5.96-1.68.96-3.39.96-5.04-.15-.74-.5-1.46-1.03-2.23-1.49-.53-.31-1.25-.2-1.48.24-.17.33-.25.79-.18,1.16.36,1.99,1.52,3.38,3.37,4.15,1.84.77,3.68.44,5.45-.25,2.82-1.11,5.18-2.92,7.33-5.03,1.46-1.44,2.77-2.98,3.65-4.85,1.24-2.65.81-5.17-1.23-7.24-.65-.66-1.45-1.06-2.3-1.39-.85-.33-.96-.74-.3-1.35,1.07-.98,2.15-1.98,3.31-2.84,1.7-1.25,2.82-2.83,3.27-4.9.2-.91-.15-1.71-.96-2.15-1.13-.61-2.37-.66-3.6-.55-3.13.27-6.13,1.09-8.98,2.39-1.13.51-2.27,1.03-3.12,1.99-.64.72-.44,1.48.5,1.65.52.09,1.07.1,1.6.04,2.14-.25,4.16-.92,6.12-1.8.56-.25,1.18-.43,1.79-.48.37-.03.87.16,1.13.42.29.29.02.68-.23.97-.34.38-.64.82-1.04,1.12-1.74,1.26-3.53,2.46-5.27,3.72-1.3.94-2.68,1.77-3.7,3.05-.27.34-.63.73-.38,1.13.18.29.62.55.97.59,1.23.14,2.48.19,3.72.27ZM70.59,32.72s-.01.07-.02.1c-.66.05-1.32.05-1.97.16-3.65.58-6.74,2.16-9,5.16-1.19,1.58-2.09,3.29-1.99,5.34.07,1.34.57,2.52,1.65,3.39,1.17.95,2.58,1.15,4.02,1.2,2.04.07,4.03-.34,6.01-.82.8-.2,1.1.1.92.9-.3,1.3-.6,2.61-.91,3.91-.88,3.65-1.77,7.3-2.64,10.95-.2.83-.36,1.67-.45,2.52-.06.62.27.97.89,1.05.51.06,1.04.09,1.55.05.19-.01.42-.22.54-.41.13-.2.15-.47.2-.71.64-3.15,1.22-6.32,1.92-9.45.74-3.32,1.74-6.57,2.95-9.75.77-2.02,1.66-3.99,2.83-5.83.54-.85,1.09-1.71,1.47-2.63.52-1.27.38-2.52-.8-3.41-.53-.4-1.15-.78-1.78-.9-1.77-.35-3.57-.56-5.36-.83Z"/>
      <path class="cls-1" d="M49.3,21.04c-.11-.24-.33-.5-.31-.73.02-.19.29-.5.48-.52.36-.04.52.31.48.61-.03.23-.26.43-.4.64-.08,0-.17,0-.25,0Z"/>
      <path class="cls-1" d="M50.24,20.41c.32-.27.5-.53.71-.55.14-.01.38.31.44.52.08.31-.1.61-.45.57-.2-.02-.37-.27-.69-.53Z"/>
      <path class="cls-1" d="M52.43,19.74c.14.22.39.43.39.65,0,.19-.28.39-.43.58-.16-.18-.43-.34-.46-.54-.03-.21.16-.45.26-.67.08,0,.16,0,.24-.01Z"/>
      <path class="cls-1" d="M64.52,45.62c-.48-.11-1.08-.2-1.65-.38-1.36-.42-1.81-1.95-1.57-3.07.4-1.88,1.51-3.26,3.02-4.34,1.54-1.11,3.21-1.99,5.18-1.96.97.01,1.94.16,2.76.79.96.74,1.26,1.78.81,2.97-.55,1.44-1.52,2.53-2.69,3.51-1.28,1.07-2.7,1.83-4.31,2.23-.46.12-.95.15-1.55.25ZM64.78,43.04s0,.02,0,.03c.26-.04.53-.06.78-.12,1.34-.31,2.45-1.06,3.42-1.98.56-.53,1.08-1.16,1.24-1.98.07-.36-.03-.57-.41-.56-.37,0-.75,0-1.11.07-1.4.31-2.58,1.05-3.55,2.06-.49.51-.84,1.17-1.16,1.81-.22.45-.03.65.47.67.11,0,.21,0,.32,0Z"/>
    </g>
  </g>
</svg>